<svg width="64" height="64" viewBox="0 0 64 64" fill="none" xmlns="http://www.w3.org/2000/svg">
<path d="M17.8351 30.651H29.9648V33.6837H17.8351V30.651ZM30.3452 24V27.0536H17.8799L19.8045 25.234V39.6863H16V24H30.3452Z" fill="white"/>
<path d="M33.9681 24H46.6796V26.719H35.1318L36.676 25.9869L35.7361 32.115H34.729C35.0721 31.6131 35.5272 31.146 36.0941 30.7137C36.676 30.2815 37.3847 29.9329 38.2202 29.668C39.0557 29.4031 40.018 29.2706 41.1071 29.2706C42.5543 29.2706 43.7927 29.5007 44.8221 29.9608C45.8516 30.407 46.6349 31.0275 47.172 31.8222C47.724 32.6031 48 33.4954 48 34.4993C48 35.573 47.6792 36.5211 47.0377 37.3438C46.3961 38.1664 45.486 38.8148 44.3074 39.2889C43.1287 39.763 41.7263 40 40.1001 40C38.4887 40 37.0863 39.7839 35.8927 39.3516C34.6991 38.9054 33.7592 38.2989 33.0729 37.532C32.4015 36.7651 32.0061 35.9146 31.8868 34.9804H35.6689C35.848 35.6636 36.3179 36.2074 37.0788 36.6118C37.8397 37.0022 38.8468 37.1974 40.1001 37.1974C40.9356 37.1974 41.6592 37.0928 42.2709 36.8837C42.8826 36.6606 43.3525 36.3468 43.6808 35.9425C44.0239 35.5381 44.1955 35.0571 44.1955 34.4993C44.1955 33.9556 44.0463 33.4815 43.7479 33.0771C43.4644 32.6588 43.0318 32.3381 42.4499 32.115C41.8829 31.8919 41.1593 31.7804 40.2791 31.7804C39.5629 31.7804 38.9139 31.8571 38.3321 32.0105C37.7651 32.1638 37.2728 32.366 36.855 32.617C36.4522 32.854 36.109 33.105 35.8256 33.3699H32.5806L33.9681 24Z" fill="white"/>
</svg>
