<svg width="139" height="100" viewBox="0 0 139 100" fill="none" xmlns="http://www.w3.org/2000/svg">
<path d="M0 98.3077V0H12.8121V98.3077H0ZM7.25505 57.1538V46.4615H58.1176V57.1538H7.25505ZM3.70471 10.6923V0H59.2753V10.6923H3.70471Z" fill="white"/>
<path d="M104.423 100C97.9395 100 92.3567 99.3077 87.6744 97.9231C82.9921 96.4872 79.3388 95.0769 76.7146 93.6923L75.4026 81.3846C77.6665 82.6667 80.2135 83.8718 83.0435 85C85.9249 86.0769 89.0379 86.9744 92.3825 87.6923C95.7784 88.359 99.406 88.6923 103.265 88.6923C108.668 88.6923 113.067 87.9487 116.463 86.4615C119.859 84.9231 122.329 82.6923 123.872 79.7692C125.468 76.7949 126.265 73.2564 126.265 69.1538V64.3077C126.265 58.5128 124.824 54 121.943 50.7692C119.061 47.5385 114.534 45.9231 108.359 45.9231C103.419 45.9231 99.2001 46.9744 95.7013 49.0769C92.2024 51.1282 89.2952 53.9744 86.9798 57.6154L75.7885 55.6923V0H136.299V10.8462H88.1375V34.3846L87.9059 48.4615L88.2918 48.3846C90.35 44.641 93.3601 41.5385 97.3221 39.0769C101.284 36.6154 106.404 35.3846 112.681 35.3846C121.531 35.3846 128.117 37.8974 132.44 42.9231C136.813 47.9487 139 54.9487 139 63.9231V69.3077C139 75.5641 137.765 81 135.295 85.6154C132.877 90.2308 129.121 93.7949 124.027 96.3077C118.933 98.7692 112.398 100 104.423 100Z" fill="white"/>
</svg>
